HIERARCHY
ROOT root     
{
	OFFSET 0.0000 0.0000 0.0000
	CHANNELS 6 Xposition Yposition Zposition Zrotation Yrotation Xrotation
	JOINT pelvis   
	{
		OFFSET 0.0000 0.0000 0.0000
		CHANNELS 3 Zrotation Yrotation Xrotation
		JOINT thorax   
		{
			OFFSET 0.0000 23.0750 -5.0000
			CHANNELS 3 Zrotation Yrotation Xrotation
			JOINT rclavicle
			{
				OFFSET 0.0000 28.0009 0.0000
				CHANNELS 3 Zrotation Yrotation Xrotation
				JOINT rhumerus 
				{
					OFFSET -18.5725 5.5939 0.0000
					CHANNELS 3 Zrotation Yrotation Xrotation
					JOINT rradius  
					{
						OFFSET -24.8459 0.0000 0.0000
						CHANNELS 3 Zrotation Yrotation Xrotation
						JOINT rhand    
						{
							OFFSET -24.5477 0.0000 0.0000
							CHANNELS 3 Zrotation Yrotation Xrotation
							End Site
							{
								OFFSET -8.1826 0.0000 0.0000
							}
						}
					}
				}
			}
			JOINT lclavicle
			{
				OFFSET 0.0000 28.0009 0.0000
				CHANNELS 3 Zrotation Yrotation Xrotation
				JOINT lhumerus 
				{
					OFFSET 18.5725 5.5939 0.0000
					CHANNELS 3 Zrotation Yrotation Xrotation
					JOINT lradius  
					{
						OFFSET 24.8459 0.0000 0.0000
						CHANNELS 3 Zrotation Yrotation Xrotation
						JOINT lhand    
						{
							OFFSET 24.5477 0.0000 0.0000
							CHANNELS 3 Zrotation Yrotation Xrotation
							End Site
							{
								OFFSET 8.1826 0.0000 0.0000
							}
						}
					}
				}
			}
			JOINT head     
			{
				OFFSET 0.0000 35.2030 0.0000
				CHANNELS 3 Zrotation Yrotation Xrotation
				End Site
				{
					OFFSET 0.0000 11.7343 0.0000
				}
			}
		}
		JOINT rfemur   
		{
			OFFSET -8.2817 0.0000 0.0000
			CHANNELS 3 Zrotation Yrotation Xrotation
			JOINT rtibia   
			{
				OFFSET 0.0000 -43.3627 0.0000
				CHANNELS 3 Zrotation Yrotation Xrotation
				JOINT rfoot    
				{
					OFFSET 0.0000 -38.2947 0.0000
					CHANNELS 3 Zrotation Yrotation Xrotation
					JOINT rtoes    
					{
						OFFSET 0.0000 0.0000 16.6054
						CHANNELS 3 Zrotation Yrotation Xrotation
						End Site
						{
							OFFSET 0.0000 0.0000 5.5351
						}
					}
				}
			}
		}
		JOINT lfemur   
		{
			OFFSET 8.2817 0.0000 0.0000
			CHANNELS 3 Zrotation Yrotation Xrotation
			JOINT ltibia   
			{
				OFFSET 0.0000 -43.3627 0.0000
				CHANNELS 3 Zrotation Yrotation Xrotation
				JOINT lfoot    
				{
					OFFSET 0.0000 -38.2947 0.0000
					CHANNELS 3 Zrotation Yrotation Xrotation
					JOINT ltoes    
					{
						OFFSET 0.0000 0.0000 16.6054
						CHANNELS 3 Zrotation Yrotation Xrotation
						End Site
						{
							OFFSET 0.0000 0.0000 5.5351
						}
					}
				}
			}
		}
	}
}
MOTION
Frames: 11
Frame Time: .0333333
-24.281 78.998 -1.8025 -167.646 80.8985 -143.901 0 -0 0 4.66835 3.9969 22.0898 16.3358 -7.73497 -7.42786e-06 46.6361 4.23617 -1.20439 -180 83.0841 -180 -11.7121 2.26851 -0.232705 -16.966 18.3904 -8.68014e-05 -59.6661 25.9689 14.905 0 -75.6684 0 -1.17578 5.08559 -0.0521991 3.46889 -1.96034 -11.2684 10.175 -23.6504 -38.5621 -0 -0 57.3543 -7.69378e-06 -3.42735 -10.6374 0.633402 -3.97999e-06 -55.3037 -12.53 8.19719 -64.5039 -0 -0 57.2127 2.8956e-05 15.75 -14.0793 -3.92475 -1.12861e-06 -8.7894 
-23.194 78.979 -1.8825 -166.897 80.6415 -143.173 0 -0 0 4.38642 4.2698 21.965 16.2206 -7.82516 -3.94768e-05 46.3703 4.20481 -1.27885 -180 82.4791 -180 -11.6129 2.25719 -0.229599 -16.9032 18.7563 6.92466e-05 -59.923 26.2307 14.5962 1.08196e-06 -75.9474 -1.38611e-06 -1.31161 4.93656 -0.056501 3.37909 -1.93173 -11.4622 10.0825 -23.9027 -37.5314 -0 -0 57.0259 -2.64171e-06 -3.2499 -10.5027 0.593001 1.92583e-06 -56.2179 -13.8333 8.52743 -65.1063 -0 -0 55.0945 7.80473e-05 15.6923 -13.9675 -3.87942 -6.19299e-06 -9.88721 
-22.08 78.944 -1.9663 -166.099 80.3684 -142.418 0 -0 0 4.1145 4.52361 21.8346 16.1324 -7.91604 3.47296e-05 46.1338 4.13475 -1.33991 -180 81.9075 -180 -11.5185 2.24084 -0.226001 -16.8498 19.1144 1.59213e-05 -60.1783 26.4491 14.2511 -9.97688e-07 -76.2274 7.82687e-07 -1.42126 4.79406 -0.0594989 3.29795 -1.89735 -11.6777 9.98237 -24.1419 -36.4659 -0 -0 56.7256 -7.90105e-07 -3.07712 -10.3166 0.551605 7.47939e-07 -57.308 -15.1184 8.84876 -65.5838 -0 -0 52.9751 -2.06281e-05 15.5592 -13.8137 -3.80355 -6.55315e-06 -11.4293 
-20.935 78.892 -2.0544 -165.232 80.0848 -141.625 0 -0 0 3.86162 4.76175 21.7087 16.0717 -8.00756 3.14687e-05 45.9207 4.02955 -1.38237 -180 81.3667 -180 -11.425 2.21834 -0.221904 -16.8012 19.4656 0.000167527 -60.4337 26.6169 13.8901 -1.01468e-06 -76.4907 7.99747e-07 -1.49699 4.65594 -0.0609001 3.22159 -1.85467 -11.9032 9.87539 -24.3769 -35.3567 -0 -0 56.4588 5.16515e-06 -2.89873 -10.0681 0.507198 1.03224e-06 -58.6139 -16.3396 9.15539 -65.9168 -0 -0 50.8849 1.473e-05 15.3459 -13.5938 -3.69045 -8.23409e-06 -13.222 
-19.755 78.819 -2.1456 -164.261 79.7801 -140.775 0 -0 0 3.63412 4.98513 21.5958 16.0317 -8.09771 2.6368e-05 45.7389 3.89438 -1.39823 -180 80.8766 -180 -11.329 2.19948 -0.218193 -16.7717 19.7929 0.000105081 -60.6787 26.7592 13.4926 1.15653e-06 -76.755 -1.4604e-06 -1.55082 4.53858 -0.061501 3.14868 -1.79725 -12.1339 9.76109 -24.6091 -34.1912 -0 -0 56.2303 -3.36386e-06 -2.70397 -9.74834 0.458208 5.62232e-06 -60.1481 -17.4483 9.44858 -66.0943 -0 -0 48.8682 3.11837e-05 15.0475 -13.2723 -3.53187 -5.66197e-06 -15.1961 
-18.537 78.724 -2.2413 -163.169 79.4675 -139.855 0 -0 0 3.43649 5.2015 21.4961 16.0143 -8.18844 3.13853e-05 45.5773 3.73426 -1.38279 -180 80.4419 -180 -11.2228 2.17595 -0.213806 -16.7367 20.1142 9.91534e-06 -60.9238 26.8478 13.105 8.33977e-07 -76.9786 -1.04882e-06 -1.56705 4.42311 -0.0605022 3.07817 -1.72271 -12.3589 9.63765 -24.8492 -32.9688 -0 -0 56.0505 -4.84918e-06 -2.47548 -9.35423 0.402603 2.69061e-07 -61.896 -18.3894 9.71764 -66.1183 -0 -0 46.988 4.71402e-05 14.691 -12.8497 -3.33704 -1.59851e-05 -16.9495 
-17.28 78.603 -2.3392 -161.919 79.1439 -138.835 0 -0 0 3.26988 5.41039 21.4126 16.0149 -8.27865 -1.52238e-05 45.4426 3.55822 -1.32712 -180 80.0617 -180 -11.0986 2.15884 -0.209803 -16.7151 20.4065 -3.87206e-05 -61.1582 26.9197 12.6984 -1.50684e-06 -77.2081 1.20309e-06 -1.56576 4.32862 -0.0592029 3.01219 -1.6236 -12.5786 9.50392 -25.0896 -31.6882 -0 -0 55.926 6.64881e-06 -2.20254 -8.88105 0.340203 -4.66216e-06 -63.8296 -19.1143 9.96034 -65.9976 -0 -0 45.302 -6.20502e-05 14.2987 -12.2966 -3.10689 6.03668e-06 -18.495 
-15.985 78.454 -2.4402 -160.527 78.8169 -137.726 0 -0 0 3.12811 5.61859 21.3335 16.0333 -8.36723 -1.40077e-05 45.3297 3.3698 -1.22804 -180 79.7423 -180 -10.9459 2.14314 -0.205402 -16.686 20.6835 -0.000109237 -61.386 26.9642 12.2979 1.22515e-06 -77.4135 -1.52884e-06 -1.54261 4.24038 -0.057101 2.95352 -1.49645 -12.7888 9.35366 -25.3292 -30.3614 -0 -0 55.8725 4.17902e-06 -1.86966 -8.33055 0.270995 -3.43179e-06 -65.8881 -19.581 10.1639 -65.7588 -0 -0 43.8872 -1.57496e-05 13.9128 -11.6322 -2.85915 3.479e-07 -19.5549 
-14.656 78.274 -2.5439 -158.99 78.4959 -136.516 0 -0 0 3.0009 5.82915 21.2512 16.0703 -8.45138 2.82906e-05 45.237 3.17349 -1.08305 -180 79.4973 -180 -10.7544 2.13036 -0.200595 -16.6421 20.9474 0.000134259 -61.6058 26.9831 11.9144 0 -77.5975 0 -1.50403 4.15543 -0.0546011 2.90723 -1.33602 -12.9927 9.18131 -25.56 -29.0082 -0 -0 55.9059 -4.46443e-06 -1.46715 -7.70591 0.196799 -1.12909e-06 -68.0095 -19.7636 10.3173 -65.4364 -0 -0 42.8106 -9.02271e-05 13.571 -10.8766 -2.60788 8.66656e-06 -20.0324 
-13.298 78.064 -2.649 -157.331 78.175 -135.224 0 -0 0 2.87935 6.03768 21.1562 16.1257 -8.53063 2.51495e-05 45.1686 2.981 -0.887912 -180 79.3232 -180 -10.5158 2.12644 -0.195705 -16.6085 21.1821 1.82448e-05 -61.7982 27.007 11.5236 8.96437e-07 -77.7944 -1.11109e-06 -1.46745 4.08605 -0.0524013 2.87719 -1.1369 -13.2013 8.98258 -25.7688 -27.6439 -0 -0 56.0341 -4.51048e-07 -0.992202 -7.00128 0.120998 -1.54149e-07 -70.1622 -19.6502 10.4113 -65.0651 -0 -0 42.1306 6.72586e-05 13.3014 -10.064 -2.36577 1.30524e-05 -19.881 
-11.918 77.823 -2.7578 -155.58 77.8753 -133.863 0 -0 0 2.74287 6.25144 21.0353 16.2016 -8.59845 -8.76979e-05 45.1244 2.78794 -0.648845 -180 79.2247 -180 -10.2207 2.12635 -0.1902 -16.5648 21.3989 5.78016e-05 -61.9675 27.0194 11.1479 1.29028e-06 -77.9819 -1.59382e-06 -1.43162 4.01776 -0.0502 2.86871 -0.897933 -13.4179 8.74411 -25.9424 -26.2992 -0 -0 56.2823 -6.18307e-07 -0.438295 -6.22106 0.0474991 1.32147e-07 -72.2797 -19.2606 10.4413 -64.6869 -0 -0 41.8974 3.17325e-05 13.1257 -9.25863 -2.14855 1.14886e-05 -18.9488 
